PathFileType  4	(X/Y/Z) C:\Users\antoi\Documents\MyRepositories\mobilecap\ResultsAnalysis
DataRate	CameraRate	NumFrames	NumMarkers	Units	OrigDataRate	OrigDataStartFrame	OrigNumFrames
100.0	100.0	4	51	mm	100.0	106	141
Frame#	Time	r_knee			r_shank_antsup			r_ankle			r_calc			r_5meta			r_toe			L_knee			L_shank_antsup			L_ankle			L_calc			L_5meta			L_toe			r_sh2			r_sh3			r_sh4			L_sh2			L_sh3			r_thigh1			r_thigh2			r_thigh3			r_thigh4			r_thigh5			L_thigh1			L_thigh2			L_thigh3			L_thigh4			r.ASIS			r.PSIS			L.ASIS			L.PSIS			C7			R_Shoulder			L_Shoulder			R_Sternum			L_Sternum			R_humerus			R_elbow_med			R_elbow_lat			R_forearm			R_wrist_radius			R_wrist_ulna			L_humerus			L_elbow_med			L_elbow_lat			L_forearm			L_wrist_radius			L_wrist_ulna			R_HJC			L_HJC			R_HJC_reg			L_HJC_reg			
		X1	Y1	Z1	X2	Y2	Z2	X3	Y3	Z3	X4	Y4	Z4	X5	Y5	Z5	X6	Y6	Z6	X7	Y7	Z7	X8	Y8	Z8	X9	Y9	Z9	X10	Y10	Z10	X11	Y11	Z11	X12	Y12	Z12	X13	Y13	Z13	X14	Y14	Z14	X15	Y15	Z15	X16	Y16	Z16	X17	Y17	Z17	X18	Y18	Z18	X19	Y19	Z19	X20	Y20	Z20	X21	Y21	Z21	X22	Y22	Z22	X23	Y23	Z23	X24	Y24	Z24	X25	Y25	Z25	X26	Y26	Z26	X27	Y27	Z27	X28	Y28	Z28	X29	Y29	Z29	X30	Y30	Z30	X31	Y31	Z31	X32	Y32	Z32	X33	Y33	Z33	X34	Y34	Z34	X35	Y35	Z35	X36	Y36	Z36	X37	Y37	Z37	X38	Y38	Z38	X39	Y39	Z39	X40	Y40	Z40	X41	Y41	Z41	X42	Y42	Z42	X43	Y43	Z43	X44	Y44	Z44	X45	Y45	Z45	X46	Y46	Z46	X47	Y47	Z47	X48	Y48	Z48	X49	Y49	Z49	X50	Y50	Z50	X51	Y51	Z51	

106	1.05000000	1143.46809	514.62349	-126.20551	1206.36750	440.99763	-129.74969	1243.44410	114.84490	-145.40920	1201.25060	64.30032	-202.32724	1368.98067	98.94092	-96.38724	1393.10964	145.06847	-144.25656	913.87559	501.72717	-408.07272	926.99505	411.52928	-394.11609	782.28393	108.48564	-377.04409	703.52045	72.11862	-330.21463	876.92980	38.96506	-417.04136	928.07958	60.60542	-360.02810	1234.76145	331.44497	-133.11443	1141.12917	421.89315	-94.73138	1163.32955	309.35673	-94.89278	851.89026	442.49273	-435.20945	817.00764	327.07949	-438.12929	1089.23965	790.80587	-107.83624	1136.04801	691.06481	-121.33097	1099.28593	643.79814	-86.55803	991.69812	740.36891	-84.37184	1043.63749	639.20734	-103.39871	1043.75782	730.19505	-424.94563	1025.31857	593.77462	-397.22894	944.26223	734.29955	-469.60032	923.92954	606.64599	-433.04663	1071.34889	964.65244	-151.48718	873.06284	993.91600	-241.00606	1088.00580	950.76910	-405.04364	880.18872	997.83716	-334.22310	947.57250	1451.02620	-330.82650	1008.28730	1427.76797	-156.06173	1045.17277	1399.42694	-471.15669	1065.04830	1373.01251	-288.59099	1067.05262	1370.50185	-333.73226	1036.70071	1302.44276	-87.53333	948.46260	1102.90471	-108.07424	952.68800	1121.62497	-42.66151	1006.14372	1059.14255	-9.07648	1060.27254	894.35011	-13.53665	1022.30645	898.34283	19.83322	1087.74682	1260.70372	-511.42333	1018.85251	1058.69111	-479.17470	1057.92100	1069.23845	-547.42850	1117.21422	1021.46988	-540.38783	1186.97011	863.20386	-497.27751	1160.92155	856.69589	-539.70255	989.56282	876.92264	-176.31930	1000.17118	870.24143	-365.46622	1003.07420	874.95725	-195.98800	1015.86347	882.00202	-363.30525	
107	1.06000000	1155.03958	511.84851	-126.31565	1220.36173	440.82516	-130.20713	1270.06404	116.03791	-145.37716	1229.25647	63.66743	-201.55178	1396.79303	105.53433	-97.55643	1418.54590	152.51295	-145.72977	919.90014	500.64606	-408.50257	931.84190	410.30808	-394.40510	782.93926	109.31372	-376.80317	703.97204	73.28165	-329.90439	877.05351	39.00752	-417.03673	928.36668	60.30607	-359.94651	1252.89667	332.36966	-133.54488	1156.33206	419.54122	-94.42479	1182.73112	307.75611	-94.63034	857.14129	442.16365	-435.59722	820.65383	327.21763	-438.27615	1101.64305	787.83319	-109.93396	1147.73097	687.72330	-123.46060	1111.23701	640.99932	-87.88711	1004.14504	738.14544	-84.99202	1055.30560	636.39622	-104.00277	1052.96355	727.64122	-425.95059	1032.83425	591.39763	-398.27315	953.19517	732.94645	-470.05062	931.24848	605.59675	-433.35899	1083.46334	961.98927	-152.42734	884.81048	990.69973	-241.52922	1099.60301	948.15285	-406.14908	891.81174	995.14954	-334.64934	958.61888	1448.76035	-327.62172	1018.81612	1422.87016	-153.13653	1056.80883	1398.88147	-468.66705	1076.22732	1370.06096	-286.26493	1078.37236	1368.17866	-331.41698	1046.88960	1296.80284	-85.93833	958.61926	1097.44339	-108.00925	961.88495	1116.05078	-42.47762	1014.87586	1053.57447	-8.28449	1069.32797	888.96299	-12.46972	1030.68912	892.66468	20.18789	1100.37924	1260.61760	-509.75093	1032.21890	1057.82713	-480.87967	1072.30416	1069.48769	-548.18559	1132.02407	1022.26742	-540.28547	1202.76120	864.67213	-496.77502	1177.75057	858.00457	-539.68531	1001.74742	874.06232	-177.17335	1011.92752	867.54704	-366.34916	1015.41548	871.44789	-197.32611	1028.00067	879.44495	-364.70472	
108	1.07000000	1167.09216	509.25680	-126.32497	1234.40943	440.40208	-130.57732	1294.60287	117.02098	-145.85625	1255.25062	63.23673	-201.65901	1422.10855	111.16442	-98.92309	1441.71901	158.97342	-147.08629	926.24566	499.53534	-408.97990	936.99174	409.03535	-394.79148	783.62789	110.23353	-376.62980	704.48928	74.65955	-329.70577	877.19841	39.01029	-417.05286	928.68558	59.97285	-359.93586	1270.41576	332.99910	-134.05557	1171.56033	417.33320	-94.10821	1201.44706	306.25075	-94.46580	862.70723	441.85790	-436.00283	824.41856	327.47343	-438.37085	1114.18988	784.90590	-111.78905	1159.62672	684.49440	-125.28185	1123.45004	638.30248	-88.93941	1016.71124	735.85965	-85.49102	1067.31566	633.65366	-104.32697	1062.37354	725.06266	-426.99230	1040.69219	588.99707	-399.41040	962.32719	731.56032	-470.43978	938.87245	604.48719	-433.66069	1095.64954	959.14937	-153.32741	896.60322	987.47278	-241.86009	1111.33520	945.43191	-407.21543	903.55481	992.40250	-334.99421	969.73959	1446.35854	-324.34436	1029.50601	1417.80073	-150.15385	1068.49452	1398.10802	-466.13236	1087.51371	1366.93849	-283.88920	1089.77292	1365.67495	-329.05251	1057.19705	1291.00256	-84.30384	968.86017	1091.82148	-107.87063	971.21264	1110.32132	-42.26728	1023.75774	1047.84766	-7.52643	1078.58349	883.45056	-11.49324	1039.27278	886.82860	20.46163	1112.92574	1260.25150	-508.06557	1045.59118	1056.76563	-482.36691	1086.60041	1069.51228	-548.76728	1146.71239	1022.81341	-540.08829	1218.41824	865.86518	-496.27585	1194.34734	859.07827	-539.62348	1013.98605	871.07744	-177.97107	1023.72026	864.77960	-367.17731	1027.70864	867.92471	-198.64088	1040.20700	876.77906	-366.07223	
109	1.08000000	1179.80469	506.95132	-126.36279	1248.57947	439.70972	-130.87463	1316.94578	117.55083	-146.72669	1278.99853	62.73605	-202.45961	1444.92149	115.48587	-100.44867	1462.65411	164.11909	-148.34791	932.91959	498.43788	-409.50662	942.45784	407.74580	-395.27637	784.38100	111.27651	-376.55194	705.08730	76.32793	-329.65656	877.37094	38.98335	-417.10169	929.04182	59.60453	-360.01610	1287.28463	333.21401	-134.61289	1186.74695	415.25600	-93.88743	1219.32762	304.77085	-94.47013	868.61107	441.61319	-436.42766	828.34591	327.88371	-438.44202	1126.88189	782.14711	-113.32839	1171.85473	681.54677	-126.78196	1136.08068	635.81174	-89.67858	1029.45981	733.52395	-85.79539	1079.82599	631.02454	-104.39189	1072.00813	722.48027	-428.02004	1048.88635	586.59621	-400.56476	971.71702	730.17679	-470.77540	946.83806	603.34860	-433.93678	1107.90507	956.18674	-154.15415	908.45554	984.27774	-242.01479	1123.21397	942.65947	-408.21979	915.43244	989.63807	-335.25014	981.00845	1443.86682	-321.05930	1040.38837	1412.62020	-147.12705	1080.26072	1397.16397	-463.54958	1098.92115	1363.69982	-281.46610	1101.28099	1363.04324	-326.64123	1067.63275	1285.11590	-82.63013	979.21122	1086.10599	-107.67965	980.70515	1104.49309	-42.05200	1032.79942	1042.02285	-6.80969	1088.03106	877.85742	-10.61100	1048.05514	880.89567	20.65810	1125.40012	1259.68309	-506.37415	1058.95650	1055.57782	-483.58711	1100.78340	1069.36944	-549.15840	1161.26317	1023.16395	-539.78848	1233.90469	866.80875	-495.79001	1210.68224	859.97580	-539.53827	1026.28119	868.01825	-178.69726	1035.57248	861.98634	-367.93435	1039.96226	864.43313	-199.90079	1052.49512	874.05044	-367.38392	
